<?xml version="1.0" encoding="utf-8"?>
<!-- Generator: Adobe Illustrator 16.0.0, SVG Export Plug-In . SVG Version: 6.00 Build 0)  -->
<!DOCTYPE svg PUBLIC "-//W3C//DTD SVG 1.0//EN" "http://www.w3.org/TR/2001/REC-SVG-20010904/DTD/svg10.dtd">
<svg version="1.0" id="Layer_1" xmlns="http://www.w3.org/2000/svg" xmlns:xlink="http://www.w3.org/1999/xlink" x="0px" y="0px"
	 width="512px" height="512px" viewBox="0 0 512 512" enable-background="new 0 0 512 512" xml:space="preserve">
<g>
	<defs>
		<path id="SVGID_1_" d="M512,256c0,141.383-114.615,256-256,256C114.619,512,0,397.383,0,256S114.619,0,256,0
			C397.385,0,512,114.617,512,256z"/>
	</defs>
	<use xlink:href="#SVGID_1_"  overflow="visible" fill="#5D0C0E"/>
	<clipPath id="SVGID_2_">
		<use xlink:href="#SVGID_1_"  overflow="visible"/>
	</clipPath>
	<g clip-path="url(#SVGID_2_)">
		<g>
			<rect x="329.566" y="360.307" fill="#4F0A0C" width="341.328" height="279.849"/>
			<rect x="328.351" y="359.092" fill="#4F0A0C" width="341.329" height="279.848"/>
			<rect x="327.137" y="357.877" fill="#4F0A0C" width="341.328" height="279.849"/>
			<rect x="325.922" y="356.661" fill="#4F0A0C" width="341.327" height="279.85"/>
			<rect x="324.706" y="355.446" fill="#4F0A0C" width="341.328" height="279.849"/>
			<rect x="323.491" y="354.231" fill="#4F0A0C" width="341.328" height="279.849"/>
			<rect x="322.276" y="353.017" fill="#4F0A0C" width="341.328" height="279.849"/>
			<rect x="321.061" y="351.802" fill="#4F0A0C" width="341.328" height="279.848"/>
			<rect x="319.846" y="350.586" fill="#4F0A0C" width="341.328" height="279.849"/>
			<rect x="318.631" y="349.371" fill="#4F0A0C" width="341.328" height="279.849"/>
			<rect x="317.416" y="348.156" fill="#4F0A0C" width="341.328" height="279.849"/>
			<rect x="316.201" y="346.941" fill="#4F0A0C" width="341.328" height="279.849"/>
			<rect x="314.985" y="345.726" fill="#4F0A0C" width="341.328" height="279.849"/>
			<rect x="313.771" y="344.511" fill="#4F0A0C" width="341.329" height="279.849"/>
			<rect x="312.556" y="343.296" fill="#4F0A0C" width="341.328" height="279.849"/>
			<rect x="311.34" y="342.08" fill="#4F0A0C" width="341.329" height="279.85"/>
			<rect x="310.125" y="340.865" fill="#4F0A0C" width="341.329" height="279.849"/>
			<rect x="308.91" y="339.65" fill="#4F0A0C" width="341.328" height="279.849"/>
			<rect x="307.695" y="338.436" fill="#4F0A0C" width="341.328" height="279.849"/>
			<rect x="306.48" y="337.221" fill="#4F0A0C" width="341.328" height="279.849"/>
			<rect x="305.265" y="336.005" fill="#4F0A0C" width="341.329" height="279.849"/>
			<rect x="304.05" y="334.791" fill="#4F0A0C" width="341.329" height="279.848"/>
			<rect x="302.835" y="333.575" fill="#4F0A0C" width="341.328" height="279.849"/>
			<rect x="301.62" y="332.359" fill="#4F0A0C" width="341.328" height="279.85"/>
			<rect x="300.404" y="331.145" fill="#4F0A0C" width="341.329" height="279.849"/>
			<rect x="299.189" y="329.93" fill="#4F0A0C" width="341.328" height="279.849"/>
			<rect x="297.975" y="328.715" fill="#4F0A0C" width="341.329" height="279.849"/>
			<rect x="296.76" y="327.5" fill="#4F0A0C" width="341.328" height="279.849"/>
			<rect x="295.544" y="326.284" fill="#4F0A0C" width="341.329" height="279.849"/>
			<rect x="294.33" y="325.07" fill="#4F0A0C" width="341.328" height="279.848"/>
			<rect x="293.114" y="323.854" fill="#4F0A0C" width="341.329" height="279.849"/>
			<rect x="291.899" y="322.64" fill="#4F0A0C" width="341.329" height="279.849"/>
			<rect x="290.684" y="321.424" fill="#4F0A0C" width="341.329" height="279.849"/>
			<rect x="289.469" y="320.209" fill="#4F0A0C" width="341.329" height="279.849"/>
			<rect x="288.254" y="318.994" fill="#4F0A0C" width="341.329" height="279.849"/>
			<rect x="287.039" y="317.779" fill="#4F0A0C" width="341.329" height="279.849"/>
			<rect x="285.823" y="316.564" fill="#4F0A0C" width="341.329" height="279.848"/>
			<rect x="284.609" y="315.35" fill="#4F0A0C" width="341.329" height="279.848"/>
			<rect x="283.395" y="314.134" fill="#4F0A0C" width="341.328" height="279.849"/>
			<rect x="282.179" y="312.919" fill="#4F0A0C" width="341.329" height="279.849"/>
			<rect x="280.964" y="311.703" fill="#4F0A0C" width="341.328" height="279.849"/>
			<rect x="279.748" y="310.488" fill="#4F0A0C" width="341.329" height="279.849"/>
			<rect x="278.533" y="309.273" fill="#4F0A0C" width="341.329" height="279.849"/>
			<rect x="277.318" y="308.059" fill="#4F0A0C" width="341.329" height="279.849"/>
			<rect x="276.104" y="306.844" fill="#4F0A0C" width="341.328" height="279.848"/>
			<rect x="274.889" y="305.629" fill="#4F0A0C" width="341.329" height="279.848"/>
			<rect x="273.674" y="304.413" fill="#4F0A0C" width="341.328" height="279.849"/>
			<rect x="272.458" y="303.198" fill="#4F0A0C" width="341.329" height="279.849"/>
			<rect x="271.243" y="301.983" fill="#4F0A0C" width="341.328" height="279.848"/>
			<rect x="270.027" y="300.768" fill="#4F0A0C" width="341.329" height="279.849"/>
			<rect x="268.813" y="299.553" fill="#4F0A0C" width="341.33" height="279.849"/>
			<rect x="267.598" y="298.338" fill="#4F0A0C" width="341.329" height="279.849"/>
			<rect x="266.383" y="297.122" fill="#4F0A0C" width="341.329" height="279.849"/>
			<rect x="265.168" y="295.908" fill="#4F0A0C" width="341.328" height="279.848"/>
			<rect x="263.952" y="294.693" fill="#4F0A0C" width="341.329" height="279.848"/>
			<rect x="262.737" y="293.478" fill="#4F0A0C" width="341.329" height="279.849"/>
			<rect x="261.522" y="292.262" fill="#4F0A0C" width="341.329" height="279.849"/>
			<rect x="260.307" y="291.047" fill="#4F0A0C" width="341.33" height="279.849"/>
			<rect x="259.093" y="289.833" fill="#4F0A0C" width="341.329" height="279.848"/>
			<rect x="257.877" y="288.617" fill="#4F0A0C" width="341.329" height="279.849"/>
			<rect x="256.662" y="287.401" fill="#4F0A0C" width="341.33" height="279.849"/>
			<rect x="255.447" y="286.188" fill="#4F0A0C" width="341.329" height="279.848"/>
			<rect x="254.232" y="284.973" fill="#4F0A0C" width="341.33" height="279.848"/>
			<rect x="253.017" y="283.757" fill="#4F0A0C" width="341.33" height="279.849"/>
			<rect x="251.802" y="282.541" fill="#4F0A0C" width="341.329" height="279.849"/>
			<rect x="250.586" y="281.326" fill="#4F0A0C" width="341.33" height="279.849"/>
			<rect x="249.372" y="280.112" fill="#4F0A0C" width="341.329" height="279.849"/>
			<rect x="248.156" y="278.896" fill="#4F0A0C" width="341.33" height="279.849"/>
			<rect x="246.941" y="277.682" fill="#4F0A0C" width="341.329" height="279.849"/>
			<rect x="245.727" y="276.467" fill="#4F0A0C" width="341.33" height="279.849"/>
			<rect x="244.512" y="275.252" fill="#4F0A0C" width="341.329" height="279.849"/>
			<rect x="243.296" y="274.036" fill="#4F0A0C" width="341.33" height="279.849"/>
			<rect x="242.081" y="272.82" fill="#4F0A0C" width="341.329" height="279.85"/>
			<rect x="240.866" y="271.606" fill="#4F0A0C" width="341.329" height="279.849"/>
			<rect x="239.651" y="270.392" fill="#4F0A0C" width="341.329" height="279.849"/>
			<rect x="238.436" y="269.176" fill="#4F0A0C" width="341.33" height="279.849"/>
			<rect x="237.221" y="267.961" fill="#4F0A0C" width="341.329" height="279.849"/>
			<rect x="236.006" y="266.746" fill="#4F0A0C" width="341.33" height="279.849"/>
			<rect x="234.791" y="265.531" fill="#4F0A0C" width="341.33" height="279.849"/>
			<rect x="233.576" y="264.315" fill="#4F0A0C" width="341.33" height="279.849"/>
			<rect x="232.36" y="263.101" fill="#4F0A0C" width="341.33" height="279.849"/>
			<rect x="231.146" y="261.886" fill="#4F0A0C" width="341.329" height="279.849"/>
			<rect x="229.931" y="260.671" fill="#4F0A0C" width="341.329" height="279.849"/>
			<rect x="228.715" y="259.455" fill="#4F0A0C" width="341.33" height="279.849"/>
			<rect x="227.5" y="258.24" fill="#4F0A0C" width="341.33" height="279.849"/>
			<rect x="226.285" y="257.025" fill="#4F0A0C" width="341.33" height="279.849"/>
			<rect x="225.07" y="255.811" fill="#4F0A0C" width="341.33" height="279.849"/>
			<rect x="223.855" y="254.595" fill="#4F0A0C" width="341.329" height="279.849"/>
			<rect x="222.64" y="253.38" fill="#4F0A0C" width="341.33" height="279.849"/>
			<rect x="221.425" y="252.165" fill="#4F0A0C" width="341.33" height="279.849"/>
			<rect x="220.21" y="250.95" fill="#4F0A0C" width="341.33" height="279.849"/>
			<rect x="218.995" y="249.735" fill="#4F0A0C" width="341.331" height="279.848"/>
			<rect x="217.779" y="248.52" fill="#4F0A0C" width="341.33" height="279.849"/>
			<rect x="216.564" y="247.305" fill="#4F0A0C" width="341.33" height="279.849"/>
			<rect x="215.35" y="246.09" fill="#4F0A0C" width="341.33" height="279.849"/>
			<rect x="214.135" y="244.875" fill="#4F0A0C" width="341.33" height="279.848"/>
			<rect x="212.919" y="243.659" fill="#4F0A0C" width="341.33" height="279.849"/>
			<rect x="211.704" y="242.444" fill="#4F0A0C" width="341.33" height="279.849"/>
			<rect x="210.49" y="241.229" fill="#4F0A0C" width="341.33" height="279.849"/>
			<rect x="209.274" y="240.014" fill="#4F0A0C" width="341.33" height="279.848"/>
			<rect x="208.059" y="238.799" fill="#4F0A0C" width="341.33" height="279.848"/>
			<rect x="206.844" y="237.584" fill="#4F0A0C" width="341.33" height="279.848"/>
			<rect x="205.629" y="236.369" fill="#4F0A0C" width="341.33" height="279.848"/>
			<rect x="204.414" y="235.154" fill="#4F0A0C" width="341.33" height="279.848"/>
			<rect x="203.199" y="233.938" fill="#4F0A0C" width="341.33" height="279.849"/>
			<rect x="201.984" y="232.724" fill="#4F0A0C" width="341.331" height="279.849"/>
			<rect x="200.769" y="231.509" fill="#4F0A0C" width="341.33" height="279.849"/>
			<rect x="199.553" y="230.294" fill="#4F0A0C" width="341.331" height="279.848"/>
			<rect x="198.338" y="229.079" fill="#4F0A0C" width="341.331" height="279.848"/>
			<rect x="197.123" y="227.863" fill="#4F0A0C" width="341.33" height="279.848"/>
			<rect x="195.908" y="226.648" fill="#4F0A0C" width="341.33" height="279.848"/>
			<rect x="194.693" y="225.433" fill="#4F0A0C" width="341.33" height="279.848"/>
			<rect x="193.479" y="224.218" fill="#4F0A0C" width="341.33" height="279.849"/>
			<rect x="192.263" y="223.003" fill="#4F0A0C" width="341.331" height="279.849"/>
			<rect x="191.048" y="221.788" fill="#4F0A0C" width="341.331" height="279.849"/>
			<rect x="189.833" y="220.573" fill="#4F0A0C" width="341.33" height="279.848"/>
			<rect x="188.618" y="219.358" fill="#4F0A0C" width="341.33" height="279.848"/>
			<rect x="187.402" y="218.143" fill="#4F0A0C" width="341.331" height="279.848"/>
			<rect x="186.188" y="216.928" fill="#4F0A0C" width="341.33" height="279.848"/>
			<rect x="184.973" y="215.712" fill="#4F0A0C" width="341.33" height="279.848"/>
			<rect x="183.757" y="214.497" fill="#4F0A0C" width="341.331" height="279.849"/>
			<rect x="182.542" y="213.282" fill="#4F0A0C" width="341.331" height="279.849"/>
			<rect x="181.327" y="212.067" fill="#4F0A0C" width="341.331" height="279.849"/>
			<rect x="180.112" y="210.852" fill="#4F0A0C" width="341.331" height="279.848"/>
			<rect x="178.897" y="209.637" fill="#4F0A0C" width="341.33" height="279.848"/>
			<rect x="177.683" y="208.422" fill="#4F0A0C" width="341.33" height="279.848"/>
			<rect x="176.467" y="207.207" fill="#4F0A0C" width="341.331" height="279.848"/>
			<rect x="175.252" y="205.992" fill="#4F0A0C" width="341.331" height="279.848"/>
			<rect x="174.037" y="204.777" fill="#4F0A0C" width="341.331" height="279.848"/>
			<rect x="172.822" y="203.562" fill="#4F0A0C" width="341.331" height="279.849"/>
			<rect x="171.606" y="202.347" fill="#4F0A0C" width="341.331" height="279.849"/>
			<rect x="170.392" y="201.131" fill="#4F0A0C" width="341.331" height="279.849"/>
			<rect x="169.177" y="199.916" fill="#4F0A0C" width="341.33" height="279.849"/>
			<rect x="167.961" y="198.702" fill="#4F0A0C" width="341.331" height="279.848"/>
			<rect x="166.747" y="197.486" fill="#4F0A0C" width="341.331" height="279.848"/>
			<rect x="165.531" y="196.271" fill="#4F0A0C" width="341.331" height="279.848"/>
			<rect x="164.316" y="195.056" fill="#4F0A0C" width="341.33" height="279.848"/>
			<rect x="163.101" y="193.841" fill="#4F0A0C" width="341.331" height="279.849"/>
			<rect x="161.886" y="192.626" fill="#4F0A0C" width="341.331" height="279.849"/>
			<rect x="160.671" y="191.411" fill="#4F0A0C" width="341.331" height="279.849"/>
			<rect x="159.456" y="190.195" fill="#4F0A0C" width="341.331" height="279.849"/>
			<rect x="158.241" y="188.98" fill="#4F0A0C" width="341.331" height="279.849"/>
			<rect x="157.025" y="187.766" fill="#4F0A0C" width="341.331" height="279.848"/>
			<rect x="155.811" y="186.551" fill="#4F0A0C" width="341.331" height="279.848"/>
			<rect x="154.596" y="185.335" fill="#4F0A0C" width="341.331" height="279.848"/>
			<rect x="153.381" y="184.12" fill="#4F0A0C" width="341.33" height="279.849"/>
			<rect x="152.166" y="182.905" fill="#4F0A0C" width="341.331" height="279.849"/>
			<rect x="150.95" y="181.69" fill="#4F0A0C" width="341.331" height="279.849"/>
			<rect x="149.735" y="180.475" fill="#4F0A0C" width="341.331" height="279.848"/>
			<rect x="148.52" y="179.26" fill="#4F0A0C" width="341.332" height="279.849"/>
			<rect x="147.305" y="178.045" fill="#4F0A0C" width="341.331" height="279.848"/>
			<rect x="146.09" y="176.83" fill="#4F0A0C" width="341.331" height="279.848"/>
			<rect x="144.875" y="175.615" fill="#4F0A0C" width="341.331" height="279.848"/>
			<rect x="143.66" y="174.4" fill="#4F0A0C" width="341.33" height="279.848"/>
			<rect x="142.445" y="173.185" fill="#4F0A0C" width="341.331" height="279.849"/>
			<rect x="141.23" y="171.97" fill="#4F0A0C" width="341.331" height="279.849"/>
			<rect x="140.015" y="170.754" fill="#4F0A0C" width="341.331" height="279.848"/>
			<rect x="138.799" y="169.539" fill="#4F0A0C" width="341.332" height="279.849"/>
			<rect x="137.584" y="168.324" fill="#4F0A0C" width="341.332" height="279.848"/>
			<rect x="136.369" y="167.109" fill="#4F0A0C" width="341.331" height="279.848"/>
			<rect x="135.154" y="165.894" fill="#4F0A0C" width="341.331" height="279.849"/>
			<rect x="133.939" y="164.679" fill="#4F0A0C" width="341.331" height="279.848"/>
			<rect x="132.724" y="163.464" fill="#4F0A0C" width="341.331" height="279.849"/>
			<rect x="131.509" y="162.249" fill="#4F0A0C" width="341.331" height="279.849"/>
			<rect x="130.294" y="161.034" fill="#4F0A0C" width="341.331" height="279.848"/>
			<rect x="129.079" y="159.818" fill="#4F0A0C" width="341.331" height="279.849"/>
			<rect x="127.864" y="158.604" fill="#4F0A0C" width="341.331" height="279.848"/>
			<rect x="126.648" y="157.389" fill="#4F0A0C" width="341.332" height="279.848"/>
			<rect x="125.434" y="156.173" fill="#4F0A0C" width="341.331" height="279.848"/>
			<rect x="124.218" y="154.958" fill="#4F0A0C" width="341.332" height="279.849"/>
			<rect x="123.003" y="153.743" fill="#4F0A0C" width="341.332" height="279.849"/>
			<rect x="121.788" y="152.528" fill="#4F0A0C" width="341.332" height="279.849"/>
			<rect x="120.573" y="151.313" fill="#4F0A0C" width="341.331" height="279.848"/>
			<rect x="119.358" y="150.098" fill="#4F0A0C" width="341.331" height="279.848"/>
			<rect x="118.144" y="148.883" fill="#4F0A0C" width="341.331" height="279.848"/>
			<rect x="116.928" y="147.668" fill="#4F0A0C" width="341.332" height="279.848"/>
			<rect x="115.713" y="146.453" fill="#4F0A0C" width="341.332" height="279.848"/>
			<rect x="114.498" y="145.237" fill="#4F0A0C" width="341.333" height="279.849"/>
			<rect x="113.283" y="144.022" fill="#4F0A0C" width="341.332" height="279.849"/>
			<rect x="112.067" y="142.808" fill="#4F0A0C" width="341.332" height="279.849"/>
			<rect x="110.853" y="141.593" fill="#4F0A0C" width="341.332" height="279.848"/>
			<rect x="109.638" y="140.377" fill="#4F0A0C" width="341.332" height="279.848"/>
			<rect x="108.422" y="139.162" fill="#4F0A0C" width="341.332" height="279.848"/>
			<rect x="107.208" y="137.947" fill="#4F0A0C" width="341.332" height="279.848"/>
			<rect x="105.992" y="136.732" fill="#4F0A0C" width="341.332" height="279.848"/>
			<rect x="104.777" y="135.517" fill="#4F0A0C" width="341.332" height="279.848"/>
			<rect x="103.563" y="134.302" fill="#4F0A0C" width="341.332" height="279.849"/>
			<rect x="102.347" y="133.086" fill="#4F0A0C" width="341.332" height="279.849"/>
			<rect x="101.132" y="131.872" fill="#4F0A0C" width="341.332" height="279.848"/>
			<rect x="99.917" y="130.657" fill="#4F0A0C" width="341.332" height="279.848"/>
			<rect x="98.702" y="129.442" fill="#4F0A0C" width="341.333" height="279.847"/>
			<rect x="97.487" y="128.227" fill="#4F0A0C" width="341.332" height="279.848"/>
			<rect x="96.271" y="127.011" fill="#4F0A0C" width="341.332" height="279.848"/>
			<rect x="95.057" y="125.796" fill="#4F0A0C" width="341.332" height="279.848"/>
			<rect x="93.842" y="124.581" fill="#4F0A0C" width="341.332" height="279.849"/>
			<rect x="92.626" y="123.366" fill="#4F0A0C" width="341.332" height="279.849"/>
			<rect x="91.412" y="122.151" fill="#4F0A0C" width="341.332" height="279.848"/>
			<rect x="90.196" y="120.936" fill="#4F0A0C" width="341.331" height="279.848"/>
			<rect x="88.981" y="119.721" fill="#4F0A0C" width="341.332" height="279.847"/>
			<rect x="87.766" y="118.506" fill="#4F0A0C" width="341.332" height="279.848"/>
			<rect x="86.551" y="117.291" fill="#4F0A0C" width="341.332" height="279.848"/>
			<rect x="85.336" y="116.076" fill="#4F0A0C" width="341.332" height="279.848"/>
		</g>
		<g id="Image_1_">
			<rect x="85.336" y="116.076" fill="#E8E9EB" width="341.332" height="279.848"/>
			<g>
				<rect x="110.292" y="143.356" fill="#5BC0DE" width="291.39" height="225.292"/>
				<path fill="#FDD835" d="M199.548,197.149c0,11.912-9.65,21.565-21.569,21.565c-11.904,0-21.558-9.654-21.558-21.565
					c0-11.915,9.654-21.566,21.558-21.566C189.898,175.583,199.548,185.234,199.548,197.149z"/>
				<g>
					<path fill="#ABD41D" d="M401.682,360.914h-291.39v-39.263c99.179,10.605,189.887-25.927,238.714-29.056
						c13.832-0.889,52.676,3.924,52.676,3.924V360.914z"/>
					<path opacity="0.1" d="M401.682,360.914h-291.39v-39.263c99.179,10.605,189.887-25.927,238.714-29.056
						c13.832-0.889,52.676,3.924,52.676,3.924V360.914z"/>
				</g>
				<g>
					<g>
						<polygon points="297.578,215.242 217.473,339.715 388.678,339.715 						"/>
						<polygon fill="#2E363F" points="297.578,215.242 217.473,339.715 303.081,339.715 311.452,250.449 						"/>
						<polygon fill="#FFFFFF" points="297.578,215.242 289.484,227.813 292.427,226.134 293.8,229.275 295.911,226.433 
							300.074,229.902 301.73,225.776 303.395,229.995 305.043,228.148 309.698,231.801 						"/>
					</g>
					<g>
						<polygon points="226.112,245.473 162.883,339.715 297.578,339.715 						"/>
						<polygon fill="#2E363F" points="226.112,245.473 162.883,339.715 196.788,340.748 218.256,277.477 237.624,277.477 						"/>
						<polygon fill="#FFFFFF" points="226.112,245.473 219.032,256.026 222.33,254.758 223.232,257.515 224.982,254.459 
							227.88,257.988 229.373,254.549 231.021,259.13 232.79,255.881 236.102,258.645 						"/>
					</g>
				</g>
				<path fill="#FFFFFF" d="M209.997,202.894c-1.06,0-2.066,0.216-2.992,0.589c-2.022-3.768-6.006-6.334-10.587-6.334
					c-3.417,0-6.483,1.429-8.669,3.711c-0.574-0.13-1.164-0.209-1.775-0.209c-4.417,0-7.994,3.574-7.994,7.987h39.65
					C216.645,205.33,213.63,202.894,209.997,202.894z"/>
				<path fill="#ABD41D" d="M401.716,368.647H110.292v-32.074c92.923-10.21,149.86,4.898,210.423,4.974
					c13.857,0.018,80.926-8.902,80.926-8.902L401.716,368.647z"/>
			</g>
		</g>
	</g>
</g>
</svg>
