<?xml version="1.0" ?><!DOCTYPE svg  PUBLIC '-//W3C//DTD SVG 1.1//EN'  'http://www.w3.org/Graphics/SVG/1.1/DTD/svg11.dtd'><svg enable-background="new 0 0 512 512" id="Layer_9" version="1.1" viewBox="0 0 512 512" xml:space="preserve" xmlns="http://www.w3.org/2000/svg" xmlns:xlink="http://www.w3.org/1999/xlink"><g><circle cx="256" cy="297" fill="#60ADE0" r="167.3"/><circle cx="359.6" cy="182.2" fill="#FFFFFF" r="96.7"/><path d="M442.7,231.8c8.7-14.5,13.6-31.4,13.6-49.5c0-31-14.7-58.6-37.4-76.3c14.7,16.8,23.7,38.8,23.7,62.9   c0,52.7-42.7,95.4-95.4,95.4c-26.2,0-50-10.6-67.2-27.7c17.4,25.5,46.6,42.3,79.8,42.3c19.7,0,37.9-5.9,53.2-16   c5.8,1.2,21.2,4.3,26.1,5.1c6.1,0.9,11.7-2.1,9.6-12C447.1,249.1,444.3,238,442.7,231.8z" fill="#E8E8E8"/><g><defs><circle cx="166.8" cy="251.4" id="SVGID_1_" r="56.6"/></defs><clipPath id="SVGID_2_"><use overflow="visible" xlink:href="#SVGID_1_"/></clipPath><circle clip-path="url(#SVGID_2_)" cx="175.9" cy="262" fill="#FFFFFF" r="56.6"/></g><path d="M213.9,220.2c5.9,9,9.4,19.7,9.4,31.2c0,31.2-25.3,56.6-56.6,56.6c-14.7,0-28-5.6-38.1-14.7   c10.1,15.3,27.5,25.3,47.2,25.3c31.2,0,56.6-25.3,56.6-56.6C232.4,245.4,225.3,230.5,213.9,220.2z" fill="#E8E8E8"/><g><defs><ellipse cx="240" cy="355.1" id="SVGID_3_" rx="108" ry="100.5" transform="matrix(0.997 -7.774328e-002 7.774328e-002 0.997 -26.8791 19.7309)"/></defs><clipPath id="SVGID_4_"><use overflow="visible" xlink:href="#SVGID_3_"/></clipPath><circle clip-path="url(#SVGID_4_)" cx="256" cy="414.2" fill="#FFFFFF" r="81.2"/></g><g><defs><circle cx="256" cy="297" id="SVGID_5_" r="167.3"/></defs><clipPath id="SVGID_6_"><use overflow="visible" xlink:href="#SVGID_5_"/></clipPath><path clip-path="url(#SVGID_6_)" d="M247.8,455c-25.6,2-49.8-4.5-69.3-17c10.3,33.1,41.1,57.1,77.5,57.1    c44.8,0,81.2-36.3,81.2-81.2c0-4.8-0.4-9.5-1.2-14C319.2,430.1,286.7,452,247.8,455z" fill="#E8E8E8"/></g><path d="M337.5,135.2l7.2,16.2c0,0,10.2-5.5,21.3-3.4c11.1,2.1,8.7,11.2,7.9,15.5s-13.5,11.4-19.8,14.8   c-6.3,3.4-6.1,12-6.8,15.8c-0.7,3.8-1.4,7.4-1.4,7.4l17.8,3.4c0,0,1.7-7.9,2.4-11.3s14.4-5.6,23.6-15s14.3-28.5-1.2-40.9   C372.8,125.3,348.2,129.4,337.5,135.2z" fill="#62B446"/><circle cx="349.6" cy="222.4" fill="#62B446" r="13.9"/><path d="M156.6,246.7l6.3,5.5c0,0,3.3-4.4,8.4-5.6s5.9,3.1,6.4,5.1c0.5,2-3.5,7.5-5.6,10.2s-0.3,6.3,0.2,8.1   c0.4,1.8,0.9,3.4,0.9,3.4l8.3-2.1c0,0-0.8-3.7-1.2-5.3c-0.4-1.6,5.1-5.2,7.1-11.1c2.1-5.8,0.5-15-8.5-17.2   C169.7,235.5,160,242.1,156.6,246.7z" fill="#62B446"/><circle cx="178.9" cy="281.6" fill="#62B446" r="6.6"/><path d="M241.3,370.5l5.9,12.9c0,0,8.1-4.5,17-3c8.9,1.6,7.1,8.9,6.5,12.3c-0.6,3.4-10.7,9.3-15.7,12.1   c-5,2.8-4.7,9.6-5.3,12.7c-0.5,3-1,5.9-1,5.9l14.3,2.5c0,0,1.3-6.3,1.8-9.1s11.5-4.7,18.7-12.3c7.3-7.6,11.2-23-1.4-32.7   S249.8,365.7,241.3,370.5z" fill="#62B446"/><circle cx="252" cy="440.2" fill="#62B446" r="11.2"/></g></svg>