<svg xmlns="http://www.w3.org/2000/svg" viewBox="0 0 51.42 57.34"><defs><style>.cls-1{fill:#efefef;}.cls-2{fill:#fff;}.cls-3{fill:#4d4d4d;}.cls-4{fill:#e0e0e0;}.cls-5{fill:#ccc;}.cls-6{fill:#f44c81;}.cls-7{fill:#aaa;}</style></defs><title>User rating</title><g id="Layer_2" data-name="Layer 2"><g id="Layer_1-2" data-name="Layer 1"><path class="cls-1" d="M6.75,49.47C2,44.59-1.47,37.86.62,33.4s9.84-6.73,15.93-13.33S27.18,2.55,33.53.4,48,4.92,50.52,12.56s-.75,16.23-2.66,24-3.72,13.06-7.57,16.9-11,4.52-17.53,3.37S11.48,54.33,6.75,49.47Z"/><rect class="cls-2" x="10.15" y="12.63" width="31.2" height="39.23" rx="3.53" ry="3.53"/><path class="cls-3" d="M37.82,12.88a3.28,3.28,0,0,1,3.28,3.28V48.33a3.28,3.28,0,0,1-3.28,3.28H13.68a3.28,3.28,0,0,1-3.28-3.28V16.16a3.28,3.28,0,0,1,3.28-3.28H37.82m0-.5H13.68A3.78,3.78,0,0,0,9.9,16.16V48.33a3.78,3.78,0,0,0,3.78,3.78H37.82a3.78,3.78,0,0,0,3.78-3.78V16.16a3.78,3.78,0,0,0-3.78-3.78Z"/><path class="cls-4" d="M12.4,48.33V16.16a3.28,3.28,0,0,1,3.28-3.28h-2a3.28,3.28,0,0,0-3.28,3.28V48.33a3.28,3.28,0,0,0,3.28,3.28h2A3.28,3.28,0,0,1,12.4,48.33Z"/><path class="cls-5" d="M25.75,24.4A11.52,11.52,0,1,1,37.27,12.88,11.53,11.53,0,0,1,25.75,24.4Z"/><path class="cls-3" d="M25.75,1.61A11.27,11.27,0,1,1,14.48,12.88,11.28,11.28,0,0,1,25.75,1.61m0-.5A11.77,11.77,0,1,0,37.52,12.88,11.78,11.78,0,0,0,25.75,1.11Z"/><path class="cls-3" d="M20.73,37.27H36.9a.6.6,0,1,0,0-1.17H20.73a.6.6,0,1,0,0,1.17Z"/><path class="cls-3" d="M14.44,37.27h2.28a.59.59,0,1,0,0-1.17H14.44a.59.59,0,0,0,0,1.17Z"/><path class="cls-3" d="M14.44,41.43H24.3a.59.59,0,1,0,0-1.17H14.44a.59.59,0,0,0,0,1.17Z"/><path class="cls-3" d="M37,40.26H28.15a.59.59,0,1,0,0,1.17H37a.59.59,0,1,0,0-1.17Z"/><path class="cls-3" d="M37,44.69H14.51a.59.59,0,1,0,0,1.17H37a.59.59,0,1,0,0-1.17Z"/><path class="cls-6" d="M18.7,32.72l-.1,0-1.89-.78-1.89.78-.09,0a.25.25,0,0,1-.15,0,.23.23,0,0,1-.1-.22l.15-2-1.32-1.56a.23.23,0,0,1-.05-.24.26.26,0,0,1,.18-.16l2-.48,1.07-1.75a.26.26,0,0,1,.42,0L18,28l2,.48a.23.23,0,0,1,.18.16.25.25,0,0,1,0,.24l-1.33,1.56.16,2a.26.26,0,0,1-.1.22A.3.3,0,0,1,18.7,32.72Z"/><path class="cls-3" d="M16.71,26.36l1.13,1.83,2.09.5-1.4,1.64.17,2.14-2-.82-2,.82.16-2.14L13.5,28.69l2.09-.5,1.12-1.83m0-.5h0a.5.5,0,0,0-.42.23l-1,1.66-1.89.46a.49.49,0,0,0-.26.81l1.26,1.47-.15,1.94a.48.48,0,0,0,.2.44.47.47,0,0,0,.3.1.46.46,0,0,0,.19,0l1.79-.74,1.8.74a.41.41,0,0,0,.19,0,.45.45,0,0,0,.29-.1.51.51,0,0,0,.21-.44l-.15-1.94L20.31,29a.5.5,0,0,0,.09-.48.48.48,0,0,0-.36-.33l-1.88-.46-1-1.66a.51.51,0,0,0-.43-.23Z"/><path class="cls-6" d="M23.76,32.72a.3.3,0,0,1-.15,0,.29.29,0,0,1-.1-.22l.16-2-1.33-1.56a.25.25,0,0,1,0-.24.23.23,0,0,1,.18-.16l2-.48,1.07-1.75a.26.26,0,0,1,.42,0L27,28l2,.48a.24.24,0,0,1,.18.16.23.23,0,0,1-.05.24l-1.32,1.56.15,2a.23.23,0,0,1-.1.22.24.24,0,0,1-.14,0l-.1,0-1.89-.78-1.89.78Z"/><path class="cls-3" d="M25.75,26.36l1.12,1.83,2.09.5-1.39,1.64.17,2.14-2-.82-2,.82.17-2.14-1.4-1.64,2.09-.5,1.13-1.83m0-.5a.52.52,0,0,0-.43.23l-1,1.66-1.89.46a.48.48,0,0,0-.36.33.52.52,0,0,0,.09.48l1.26,1.47-.15,1.94a.51.51,0,0,0,.21.44.46.46,0,0,0,.29.1.41.41,0,0,0,.19,0l1.8-.74,1.8.74a.41.41,0,0,0,.19,0,.46.46,0,0,0,.29-.1.48.48,0,0,0,.2-.44l-.15-1.94L29.34,29a.5.5,0,0,0,.1-.48.48.48,0,0,0-.36-.33l-1.89-.46-1-1.66a.54.54,0,0,0-.43-.23Z"/><path class="cls-6" d="M36.77,32.72l-.09,0-1.89-.78-1.89.78-.1,0a.3.3,0,0,1-.15,0,.23.23,0,0,1-.1-.22l.16-2-1.33-1.56a.25.25,0,0,1-.05-.24.26.26,0,0,1,.18-.16l2-.48,1.07-1.75a.27.27,0,0,1,.22-.11.26.26,0,0,1,.21.11L36.07,28l2,.48a.26.26,0,0,1,.18.16.23.23,0,0,1-.05.24l-1.33,1.56.16,2a.23.23,0,0,1-.1.22A.27.27,0,0,1,36.77,32.72Z"/><path class="cls-3" d="M34.79,26.36l1.12,1.83,2.09.5-1.39,1.64.16,2.14-2-.82-2,.82L33,30.33l-1.4-1.64,2.09-.5,1.13-1.83m0-.5a.51.51,0,0,0-.43.23l-1,1.66-1.89.46a.49.49,0,0,0-.35.33.5.5,0,0,0,.09.48l1.26,1.47-.15,1.94a.51.51,0,0,0,.21.44.45.45,0,0,0,.29.1.43.43,0,0,0,.19,0l1.8-.74,1.79.74a.43.43,0,0,0,.19,0,.47.47,0,0,0,.3-.1.48.48,0,0,0,.2-.44l-.15-1.94L38.38,29a.53.53,0,0,0,.1-.48.5.5,0,0,0-.36-.33l-1.89-.46-1-1.66a.5.5,0,0,0-.42-.23Z"/><ellipse class="cls-2" cx="25.75" cy="9.84" rx="2.65" ry="3.16"/><path class="cls-3" d="M25.75,6.93c2.05,0,2.4,1.3,2.4,2.91a2.69,2.69,0,0,1-2.4,2.91,2.69,2.69,0,0,1-2.4-2.91c0-1.61.35-2.91,2.4-2.91m0-.5c-2.9,0-2.9,2.48-2.9,3.41a3.19,3.19,0,0,0,2.9,3.41,3.19,3.19,0,0,0,2.9-3.41c0-.93,0-3.41-2.9-3.41Z"/><path class="cls-2" d="M21.22,17.45a.25.25,0,0,1-.25-.24A.37.37,0,0,1,21,17a.25.25,0,0,1,.18-.08.29.29,0,0,1,.25.3.25.25,0,0,1-.24.25Z"/><path class="cls-3" d="M21.22,17.15v0m0-.5a.51.51,0,0,0-.36.15.54.54,0,0,0-.14.42.5.5,0,0,0,.5.48h0a.5.5,0,0,0,.49-.5.51.51,0,0,0-.5-.55Z"/><path class="cls-2" d="M30.27,17.53a.25.25,0,0,1-.24-.25c0-.14.11-.34.25-.34a.23.23,0,0,1,.18.08.53.53,0,0,1,.07.28.25.25,0,0,1-.25.23Z"/><path class="cls-3" d="M30.28,17.19v0m0-.5c-.08,0-.5,0-.5.59a.51.51,0,0,0,.49.5h0a.5.5,0,0,0,.5-.48.6.6,0,0,0-.14-.46.48.48,0,0,0-.36-.15Z"/><path class="cls-2" d="M25.75,19.09c-4,0-4.73-1.42-4.75-1.48a.26.26,0,0,1,0-.11V17c.05-2.83.5-3.73,3.41-4.26h.05a.25.25,0,0,1,.19.09,1.73,1.73,0,0,0,2.24,0,.25.25,0,0,1,.2-.09h0c2.91.53,3.37,1.45,3.41,4.35v.42a.26.26,0,0,1,0,.11C30.47,17.67,29.72,19.09,25.75,19.09Z"/><path class="cls-3" d="M27.06,13c2.8.5,3.17,1.3,3.21,4.1,0,.16,0,.2,0,.2h0v.22s-.67,1.34-4.53,1.34-4.53-1.34-4.53-1.34v-.3h0s0-.05,0-.22c.05-2.73.44-3.51,3.21-4a2,2,0,0,0,2.62,0m0-.5a.46.46,0,0,0-.38.18,1.29,1.29,0,0,1-.93.32,1.26,1.26,0,0,1-.93-.32.53.53,0,0,0-.39-.18h-.08C21.29,13,20.78,14,20.73,17a1.18,1.18,0,0,0,0,.16v.36a.59.59,0,0,0,.05.22c.08.16.92,1.62,5,1.62s4.89-1.46,5-1.62a.59.59,0,0,0,.05-.22v-.42c0-3-.55-4-3.62-4.6Z"/><path class="cls-7" d="M16.48,12.88A11.27,11.27,0,0,1,26.75,1.66c-.33,0-.66,0-1,0a11.27,11.27,0,0,0,0,22.54c.34,0,.67,0,1,0A11.26,11.26,0,0,1,16.48,12.88Z"/></g></g></svg>