<svg xmlns="http://www.w3.org/2000/svg" width="394" height="281" viewBox="0 0 394 281">
  <g id="Grupo_14" data-name="Grupo 14" transform="translate(-132 -642)">
    <ellipse id="Elipse_12" data-name="Elipse 12" cx="68.5" cy="65" rx="68.5" ry="65" transform="translate(132 642)" fill="#9f9f9f"/>
    <ellipse id="Elipse_13" data-name="Elipse 13" cx="68.5" cy="65" rx="68.5" ry="65" transform="translate(389 648)" fill="#878787"/>
    <ellipse id="Elipse_15" data-name="Elipse 15" cx="68.5" cy="65" rx="68.5" ry="65" transform="translate(389 648)" fill="#9f9f9f"/>
    <ellipse id="Elipse_16" data-name="Elipse 16" cx="34" cy="50" rx="34" ry="50" transform="translate(455.19 666.092) rotate(42)" fill="#dfdfdf"/>
    <ellipse id="Elipse_17" data-name="Elipse 17" cx="34" cy="50" rx="34" ry="50" transform="matrix(-0.588, 0.809, -0.809, -0.588, 269.435, 718.883)" fill="#dfdfdf"/>
    <ellipse id="Elipse_7" data-name="Elipse 7" cx="111.5" cy="113" rx="111.5" ry="113" transform="translate(216 697)" fill="#9f9f9f"/>
    <ellipse id="Elipse_10" data-name="Elipse 10" cx="28.5" cy="30.5" rx="28.5" ry="30.5" transform="translate(337 739)" fill="#fff"/>
    <ellipse id="Elipse_18" data-name="Elipse 18" cx="18.5" cy="23" rx="18.5" ry="23" transform="translate(347 754)" fill="#313131"/>
    <ellipse id="Elipse_11" data-name="Elipse 11" cx="28.5" cy="30.5" rx="28.5" ry="30.5" transform="translate(261 739)" fill="#fff"/>
    <ellipse id="Elipse_19" data-name="Elipse 19" cx="18.5" cy="23" rx="18.5" ry="23" transform="translate(271 754)" fill="#313131"/>
    <ellipse id="Elipse_14" data-name="Elipse 14" cx="38.5" cy="41" rx="38.5" ry="41" transform="translate(289 837)" fill="#d6d6d6"/>
    <ellipse id="Elipse_20" data-name="Elipse 20" cx="35" cy="26" rx="35" ry="26" transform="translate(293 867)" fill="#dc0a0a"/>
    <path id="Trazado_12" data-name="Trazado 12" d="M21.5,0C33.374,0,43,20.641,43,35S33.374,52,21.5,52-1,49.359-1,35,9.626,0,21.5,0Z" transform="translate(306 791)" fill="#313131"/>
  </g>
</svg>
